<svg xmlns="http://www.w3.org/2000/svg" viewBox="0 0 24 24" fill="#5865F2">
  <path d="M20.317 4.369A19.791 19.791 0 0 0 15.885 3a13.913 13.913 0 0 0-.685 1.394 18.27 18.27 0 0 0-6.4 0A13.889 13.889 0 0 0 8.115 3a19.736 19.736 0 0 0-4.433 1.37C.533 9.047-.32 13.58.107 18.057A19.923 19.923 0 0 0 5.993 21a14.295 14.295 0 0 0 1.274-2.067 12.955 12.955 0 0 1-2.006-.96c.168-.122.333-.25.493-.382 3.874 1.824 8.072 1.824 11.9 0 .16.132.325.26.493.382-.641.377-1.313.699-2.006.96A14.267 14.267 0 0 0 18.414 21a19.886 19.886 0 0 0 5.886-2.943c.5-5.189-.838-9.68-3.983-13.688ZM8.02 15.331c-1.164 0-2.119-1.084-2.119-2.419 0-1.336.936-2.42 2.119-2.42 1.192 0 2.138 1.094 2.119 2.42 0 1.335-.936 2.419-2.119 2.419Zm7.961 0c-1.164 0-2.119-1.084-2.119-2.419 0-1.336.936-2.42 2.119-2.42 1.192 0 2.138 1.094 2.119 2.42 0 1.335-.927 2.419-2.119 2.419Z"/>
</svg>
