<svg width="164" height="162" viewBox="0 0 164 162" fill="none" xmlns="http://www.w3.org/2000/svg">
<path d="M16.1132 90.4042C21.056 92.2874 26.5651 93.0768 32.2666 93.0995C34.1479 102.344 38.7555 111.132 46.0693 118.166C53.0085 124.839 61.431 129.017 70.2275 130.726C70.6206 135.871 71.6682 140.922 73.5947 145.691L73.7382 146.048L73.4306 146.277C61.2392 155.449 45.937 159.457 32.875 160.767C26.3405 161.422 20.3524 161.404 15.5751 161.015C10.8228 160.627 7.20226 159.868 5.44722 159.004L5.30659 158.935L5.23042 158.798C4.12203 156.799 3.1321 153.017 2.52827 148.156C1.92197 143.275 1.69858 137.246 2.1562 130.717C3.07101 117.665 6.71367 102.551 15.5332 90.5751L15.7587 90.2685L16.1132 90.4042Z" fill="#01378f"/>
<path d="M148.354 89.5869C157.526 101.778 161.533 117.081 162.843 130.143C163.498 136.677 163.48 142.666 163.091 147.443C162.704 152.195 161.945 155.815 161.08 157.57L161.011 157.711L160.874 157.787C158.876 158.895 155.093 159.885 150.232 160.489C145.351 161.096 139.323 161.319 132.793 160.861C119.742 159.947 104.627 156.304 92.6513 147.484L92.3447 147.26L92.4804 146.904C94.5567 141.455 95.3052 135.316 95.1601 128.991C102.151 126.587 108.69 122.532 114.167 116.838C120.769 109.973 124.929 101.656 126.671 92.9619C133.911 93.0881 141.114 92.1115 147.768 89.4238L148.124 89.2802L148.354 89.5869Z" fill="#01378f"/>
<path d="M13.1308 1.89349C18.0121 1.2872 24.0407 1.06383 30.5703 1.52142C43.6216 2.43623 58.7364 6.07898 70.7119 14.8984L71.0185 15.123L70.8828 15.4785C68.4586 21.8413 67.843 29.1428 68.3486 36.5849C59.6407 38.6394 51.4033 43.1401 44.7402 50.0683C39.2876 55.7379 35.5005 62.3976 33.3652 69.4423C27.2556 69.6344 21.2288 70.6835 15.5957 72.9589L15.2392 73.1025L15.0087 72.7958C5.83706 60.6044 1.83028 45.3022 0.520458 32.2402C-0.13481 25.7053 -0.116687 19.7168 0.272411 14.9394C0.659528 10.1873 1.41865 6.5675 2.28315 4.81244L2.35249 4.67181L2.48921 4.59564C4.48774 3.48727 8.26987 2.49733 13.1308 1.89349Z" fill="#01378f"/>
<path d="M129.221 0.520447C135.755 -0.134792 141.744 -0.116695 146.521 0.2724C151.274 0.659538 154.893 1.41861 156.648 2.28314L156.789 2.35248L156.865 2.4892C157.974 4.48777 158.964 8.26979 159.567 13.1308C160.174 18.0121 160.397 24.0406 159.939 30.5703C159.025 43.6215 155.382 58.7365 146.562 70.7119L146.338 71.0185L145.982 70.8828C139.707 68.4919 132.519 67.8611 125.184 68.329C122.806 61.1202 118.689 54.368 112.838 48.7402C106.787 42.9206 99.6074 38.9987 92.0361 36.957C92.191 29.6279 91.2223 22.3304 88.5019 15.5956L88.3583 15.2392L88.665 15.0097C100.856 5.83798 116.159 1.83028 129.221 0.520447Z" fill="#01378f"/>
<path d="M56.7399 61.9333C68.5471 49.6566 88.0712 49.2757 100.348 61.0827C112.625 72.8901 113.006 92.415 101.199 104.692C89.3915 116.969 69.8675 117.35 57.5904 105.543C45.3133 93.7353 44.9325 74.2104 56.7399 61.9333Z" fill="#01378f"/>
</svg>
