<svg width="77" height="18" viewBox="0 0 77 18" fill="none" xmlns="http://www.w3.org/2000/svg">
<path d="M12.8203 17.543H12.0469L10.8047 15.8203C10.5 16.0938 10.1758 16.3516 9.83203 16.5938C9.49609 16.8281 9.14062 17.0352 8.76562 17.2148C8.39062 17.3867 8.00391 17.5234 7.60547 17.625C7.21484 17.7266 6.81641 17.7773 6.41016 17.7773C5.52734 17.7773 4.69531 17.6289 3.91406 17.332C3.14062 17.0352 2.46094 16.6055 1.875 16.043C1.29688 15.4727 0.839844 14.7773 0.503906 13.957C0.167969 13.1367 0 12.2031 0 11.1562C0 10.1797 0.167969 9.28516 0.503906 8.47266C0.839844 7.65234 1.29688 6.94922 1.875 6.36328C2.46094 5.77734 3.14062 5.32422 3.91406 5.00391C4.69531 4.67578 5.52734 4.51172 6.41016 4.51172C6.81641 4.51172 7.21875 4.5625 7.61719 4.66406C8.01562 4.76562 8.40234 4.90625 8.77734 5.08594C9.15234 5.26562 9.50781 5.47656 9.84375 5.71875C10.1875 5.96094 10.5078 6.22266 10.8047 6.50391L12.0469 5.01562H12.8203V17.543ZM9.59766 11.1562C9.59766 10.7188 9.51172 10.2969 9.33984 9.89062C9.17578 9.47656 8.94922 9.11328 8.66016 8.80078C8.37109 8.48047 8.03125 8.22656 7.64062 8.03906C7.25781 7.84375 6.84766 7.74609 6.41016 7.74609C5.97266 7.74609 5.55859 7.82031 5.16797 7.96875C4.78516 8.11719 4.44922 8.33594 4.16016 8.625C3.87891 8.91406 3.65625 9.27344 3.49219 9.70312C3.32812 10.125 3.24609 10.6094 3.24609 11.1562C3.24609 11.7031 3.32812 12.1914 3.49219 12.6211C3.65625 13.043 3.87891 13.3984 4.16016 13.6875C4.44922 13.9766 4.78516 14.1953 5.16797 14.3438C5.55859 14.4922 5.97266 14.5664 6.41016 14.5664C6.84766 14.5664 7.25781 14.4727 7.64062 14.2852C8.03125 14.0898 8.37109 13.8359 8.66016 13.5234C8.94922 13.2031 9.17578 12.8398 9.33984 12.4336C9.51172 12.0195 9.59766 11.5938 9.59766 11.1562ZM17.9888 17.543H14.7895V4.99219H15.563L16.6177 6.21094C17.1333 5.74219 17.7153 5.38281 18.3638 5.13281C19.02 4.875 19.7036 4.74609 20.4145 4.74609C21.1802 4.74609 21.9028 4.89453 22.5825 5.19141C23.2622 5.48047 23.8559 5.88281 24.3638 6.39844C24.8716 6.90625 25.27 7.50391 25.5591 8.19141C25.8559 8.87109 26.0044 9.59766 26.0044 10.3711V17.543H22.8052V10.3711C22.8052 10.043 22.7427 9.73438 22.6177 9.44531C22.4927 9.14844 22.3208 8.89062 22.102 8.67188C21.8833 8.45312 21.6294 8.28125 21.3403 8.15625C21.0513 8.03125 20.7427 7.96875 20.4145 7.96875C20.0786 7.96875 19.7622 8.03125 19.4653 8.15625C19.1684 8.28125 18.9106 8.45312 18.6919 8.67188C18.4731 8.89062 18.3013 9.14844 18.1763 9.44531C18.0513 9.73438 17.9888 10.043 17.9888 10.3711V17.543ZM39.9619 17.543H39.1884L37.9463 15.8203C37.6416 16.0938 37.3173 16.3516 36.9736 16.5938C36.6377 16.8281 36.2822 17.0352 35.9072 17.2148C35.5322 17.3867 35.1455 17.5234 34.747 17.625C34.3564 17.7266 33.958 17.7773 33.5517 17.7773C32.6689 17.7773 31.8369 17.6289 31.0556 17.332C30.2822 17.0352 29.6025 16.6055 29.0166 16.043C28.4384 15.4727 27.9814 14.7773 27.6455 13.957C27.3095 13.1367 27.1416 12.2031 27.1416 11.1562C27.1416 10.1797 27.3095 9.28516 27.6455 8.47266C27.9814 7.65234 28.4384 6.94922 29.0166 6.36328C29.6025 5.77734 30.2822 5.32422 31.0556 5.00391C31.8369 4.67578 32.6689 4.51172 33.5517 4.51172C33.958 4.51172 34.3603 4.5625 34.7588 4.66406C35.1572 4.76562 35.5439 4.90625 35.9189 5.08594C36.2939 5.26562 36.6494 5.47656 36.9853 5.71875C37.3291 5.96094 37.6494 6.22266 37.9463 6.50391L39.1884 5.01562H39.9619V17.543ZM36.7392 11.1562C36.7392 10.7188 36.6533 10.2969 36.4814 9.89062C36.3173 9.47656 36.0908 9.11328 35.8017 8.80078C35.5127 8.48047 35.1728 8.22656 34.7822 8.03906C34.3994 7.84375 33.9892 7.74609 33.5517 7.74609C33.1142 7.74609 32.7002 7.82031 32.3095 7.96875C31.9267 8.11719 31.5908 8.33594 31.3017 8.625C31.0205 8.91406 30.7978 9.27344 30.6338 9.70312C30.4697 10.125 30.3877 10.6094 30.3877 11.1562C30.3877 11.7031 30.4697 12.1914 30.6338 12.6211C30.7978 13.043 31.0205 13.3984 31.3017 13.6875C31.5908 13.9766 31.9267 14.1953 32.3095 14.3438C32.7002 14.4922 33.1142 14.5664 33.5517 14.5664C33.9892 14.5664 34.3994 14.4727 34.7822 14.2852C35.1728 14.0898 35.5127 13.8359 35.8017 13.5234C36.0908 13.2031 36.3173 12.8398 36.4814 12.4336C36.6533 12.0195 36.7392 11.5938 36.7392 11.1562ZM45.1303 17.543H41.9311V4.99219H42.7045L43.7592 6.21094C44.2748 5.74219 44.8569 5.38281 45.5053 5.13281C46.1616 4.875 46.8452 4.74609 47.5561 4.74609C48.3217 4.74609 49.0444 4.89453 49.7241 5.19141C50.4038 5.48047 50.9975 5.88281 51.5053 6.39844C52.0131 6.90625 52.4116 7.50391 52.7006 8.19141C52.9975 8.87109 53.1459 9.59766 53.1459 10.3711V17.543H49.9467V10.3711C49.9467 10.043 49.8842 9.73438 49.7592 9.44531C49.6342 9.14844 49.4623 8.89062 49.2436 8.67188C49.0248 8.45312 48.7709 8.28125 48.4819 8.15625C48.1928 8.03125 47.8842 7.96875 47.5561 7.96875C47.2202 7.96875 46.9038 8.03125 46.6069 8.15625C46.31 8.28125 46.0522 8.45312 45.8334 8.67188C45.6147 8.89062 45.4428 9.14844 45.3178 9.44531C45.1928 9.73438 45.1303 10.043 45.1303 10.3711V17.543ZM61.08 17.543C60.3066 17.543 59.58 17.3984 58.9003 17.1094C58.2206 16.8125 57.623 16.4102 57.1073 15.9023C56.5995 15.3867 56.1972 14.7891 55.9003 14.1094C55.6113 13.4297 55.4667 12.7031 55.4667 11.9297V8.20312H53.9081V5.01562H55.4667V0H58.6542V5.01562H63.5058V8.20312H58.6542V11.9297C58.6542 12.2656 58.7167 12.582 58.8417 12.8789C58.9667 13.168 59.1386 13.4219 59.3573 13.6406C59.5761 13.8594 59.8339 14.0352 60.1308 14.168C60.4277 14.293 60.7441 14.3555 61.08 14.3555H63.5058V17.543H61.08ZM76.9828 17.543H76.2094L74.9672 15.8203C74.6625 16.0938 74.3383 16.3516 73.9945 16.5938C73.6586 16.8281 73.3031 17.0352 72.9281 17.2148C72.5531 17.3867 72.1664 17.5234 71.768 17.625C71.3773 17.7266 70.9789 17.7773 70.5727 17.7773C69.6898 17.7773 68.8578 17.6289 68.0766 17.332C67.3031 17.0352 66.6234 16.6055 66.0375 16.043C65.4594 15.4727 65.0023 14.7773 64.6664 13.957C64.3305 13.1367 64.1625 12.2031 64.1625 11.1562C64.1625 10.1797 64.3305 9.28516 64.6664 8.47266C65.0023 7.65234 65.4594 6.94922 66.0375 6.36328C66.6234 5.77734 67.3031 5.32422 68.0766 5.00391C68.8578 4.67578 69.6898 4.51172 70.5727 4.51172C70.9789 4.51172 71.3812 4.5625 71.7797 4.66406C72.1781 4.76562 72.5648 4.90625 72.9398 5.08594C73.3148 5.26562 73.6703 5.47656 74.0062 5.71875C74.35 5.96094 74.6703 6.22266 74.9672 6.50391L76.2094 5.01562H76.9828V17.543ZM73.7602 11.1562C73.7602 10.7188 73.6742 10.2969 73.5023 9.89062C73.3383 9.47656 73.1117 9.11328 72.8227 8.80078C72.5336 8.48047 72.1937 8.22656 71.8031 8.03906C71.4203 7.84375 71.0102 7.74609 70.5727 7.74609C70.1352 7.74609 69.7211 7.82031 69.3305 7.96875C68.9477 8.11719 68.6117 8.33594 68.3227 8.625C68.0414 8.91406 67.8187 9.27344 67.6547 9.70312C67.4906 10.125 67.4086 10.6094 67.4086 11.1562C67.4086 11.7031 67.4906 12.1914 67.6547 12.6211C67.8187 13.043 68.0414 13.3984 68.3227 13.6875C68.6117 13.9766 68.9477 14.1953 69.3305 14.3438C69.7211 14.4922 70.1352 14.5664 70.5727 14.5664C71.0102 14.5664 71.4203 14.4727 71.8031 14.2852C72.1937 14.0898 72.5336 13.8359 72.8227 13.5234C73.1117 13.2031 73.3383 12.8398 73.5023 12.4336C73.6742 12.0195 73.7602 11.5938 73.7602 11.1562Z" fill="black"/>
</svg>
